<?xml version="1.0" encoding="UTF-8"?><svg xmlns="http://www.w3.org/2000/svg" viewBox="0 0 600.01 600"><defs><style>.c{fill:#fcfcfc;}</style></defs><g id="a"/><g id="b"><g><g><path class="c" d="M310.19,430.37L64.63,184.82c-42.53-42.53-42.53-111.74,0-154.27l8.51-8.52L395.83,344.73l-85.64,85.64ZM73.74,56.68c-24.98,33.28-22.34,80.86,7.91,111.11l228.54,228.54,51.6-51.6L73.74,56.68Z"/><path class="c" d="M538.27,600l-216.21-215.54,56.75-56.75,216.2,215.54-56.75,56.75Zm-182.16-215.54l182.16,181.5,22.7-22.7-182.16-181.5-22.7,22.7Z"/></g><g><g><rect class="c" x="363.05" y="100.47" width="169.49" height="24.07" transform="translate(51.6 349.59) rotate(-45)"/><rect class="c" x="402.87" y="140.28" width="169.49" height="24.07" transform="translate(35.11 389.41) rotate(-45)"/></g><polygon class="c" points="234.22 388.49 56.77 565.95 46.66 555.84 34.05 543.23 211.52 365.79 194.5 348.76 0 543.23 29.64 572.87 56.77 600 251.24 405.51 234.22 388.49"/><path class="c" d="M582.99,127.84l-130.83,130.83c-20.83,20.83-53.56,22.33-76.13,3.49l-8.45-7.04s-15.03,15.03-15.03,15.03c-.17,.17,12.6,12.72,13.9,13.85,4.96,4.33,10.45,7.55,16.57,9.95,11.54,4.53,24.11,6.31,36.45,5.18,18.73-1.71,36.43-10.15,49.71-23.44l130.83-130.83-17.02-17.02Z"/><path class="c" d="M312.9,230.4c.74,.91,1.51,1.77,2.34,2.58,1.17,1.14,14.55,14.57,14.56,14.56l15.11-15.1-7.05-8.45c-18.84-22.58-17.34-55.31,3.48-76.13L472.16,17.02,455.14,0l-130.83,130.83c-17.78,17.78-26.51,43.27-22.98,68.2,1.46,10.3,4.71,22.91,11.56,31.37Z"/></g></g></g></svg>